<svg xmlns="http://www.w3.org/2000/svg" viewBox="0 0 108.73 102.9"><defs><style>.cls-1{fill:none;stroke:#221f1f;stroke-width:2.83px;}.cls-1,.cls-2{stroke-miterlimit:10;}.cls-2{fill:#fff;stroke:#000;stroke-width:2px;}</style></defs><g id="Camada_2" data-name="Camada 2"><g id="Home"><path class="cls-1" d="M96.57,70.78S84.08,110.23,40.12,94.89"/><path class="cls-2" d="M31.77,69.56C31,72.69,27,74.39,22.69,73.37h0c-4.27-1-7.11-4.38-6.36-7.51l7-29C24.05,33.7,28.11,32,32.38,33h0c4.26,1,7.11,4.38,6.36,7.51Z"/><path class="cls-2" d="M84.54,82.23c-.75,3.13-4.81,4.83-9.07,3.81h0c-4.27-1-7.11-4.38-6.36-7.51l7-29c.75-3.13,4.81-4.84,9.07-3.81h0c4.27,1,7.11,4.38,6.36,7.51Z"/><path class="cls-2" d="M15.52,43.54,9.39,41.87S22.61-8.22,67.36,2.5C113.56,13.57,102.18,65,102.18,65L96,63.56S100.78,18,66.86,11.49C66.86,11.49,35-.76,15.52,43.54Z"/><path class="cls-2" d="M35.92,88.09c1-2.77,3.79-4.3,6.2-3.42h0c2.42.88,3.55,3.85,2.54,6.61l-2.54,7c-1,2.76-3.8,4.3-6.21,3.42h0c-2.41-.89-3.54-3.85-2.53-6.62Z"/><path class="cls-2" d="M20.23,57.76c-1.15,4.77-6.33,7.61-11.57,6.35h0C3.41,62.85.08,58,1.23,53.2l2.86-12c1.15-4.77,6.34-7.62,11.58-6.36h0c5.24,1.26,8.57,6.15,7.43,10.92Z"/><path class="cls-2" d="M104.64,78c-1.15,4.77-6.33,7.61-11.58,6.35h0c-5.24-1.26-8.57-6.15-7.43-10.91l2.87-12c1.15-4.76,6.33-7.61,11.58-6.35h0c5.25,1.26,8.57,6.15,7.43,10.92Z"/></g></g></svg>