<svg xmlns="http://www.w3.org/2000/svg" viewBox="0 0 249.48 18.32"><defs><style>.cls-1{fill:#fff;}</style></defs><g id="Camada_2" data-name="Camada 2"><g id="Camada_1-2" data-name="Camada 1"><rect class="cls-1" x="32.75" y="3.17" width="12.35" height="12.64" transform="translate(4.7 30.31) rotate(-45)"/><polygon class="cls-1" points="12.21 9.38 14.84 6.76 8.74 0.65 0 9.38 8.94 18.32 15.04 12.21 12.21 9.38"/><polygon class="cls-1" points="27.27 9.38 29.89 6.76 23.78 0.65 15.04 9.38 23.98 18.32 30.09 12.21 27.27 9.38"/><path class="cls-1" d="M68.61,6.67a5.78,5.78,0,0,1-1,3.48,4.91,4.91,0,0,1-4.27,1.79H60.83v5.15h-4V1.56h6.43a5.24,5.24,0,0,1,4.16,1.6A5.08,5.08,0,0,1,68.61,6.67Zm-4.19,0a1.94,1.94,0,0,0-.5-1.39,2.4,2.4,0,0,0-1.73-.52H60.83V8.68h1.35A2.31,2.31,0,0,0,64,8.11,2,2,0,0,0,64.42,6.72Z"/><path class="cls-1" d="M81.65,13.23a3.81,3.81,0,0,1-2.78,3.92,9,9,0,0,1-2.84.4q-3.28,0-4.72-1.62a3.89,3.89,0,0,1-.91-2.7V6.53h3.74v6A1.93,1.93,0,0,0,74.62,14a1.91,1.91,0,0,0,1.41.51,1.87,1.87,0,0,0,1.4-.51,1.93,1.93,0,0,0,.48-1.45v-6h3.74Z"/><path class="cls-1" d="M87.94,17.09H84.19V0h3.75Z"/><path class="cls-1" d="M99.06,13.53a3.51,3.51,0,0,1-1.2,2.75,5.53,5.53,0,0,1-3.81,1.21,8.22,8.22,0,0,1-4.23-1.22l1.36-2.64a5.5,5.5,0,0,0,3,1q1.17,0,1.17-.81a.72.72,0,0,0-.41-.65,5.43,5.43,0,0,0-1.18-.35,11.49,11.49,0,0,1-1.35-.35,2.56,2.56,0,0,1-1.53-1.39,3,3,0,0,1-.22-1.22,3.45,3.45,0,0,1,1-2.42,4.83,4.83,0,0,1,3.75-1.33,8.86,8.86,0,0,1,3.43.68L97.49,9.25a4.32,4.32,0,0,0-2-.54c-.75,0-1.12.26-1.12.78q0,.35.45.57a7.42,7.42,0,0,0,1.2.31,4.27,4.27,0,0,1,2.16,1A2.9,2.9,0,0,1,99.06,13.53Z"/><path class="cls-1" d="M112.87,17.09h-3.75V15.92a3.72,3.72,0,0,1-1.08,1,4.31,4.31,0,0,1-2.17.53,5.16,5.16,0,0,1-3.5-1.35,5.42,5.42,0,0,1-1.83-4.27,5.4,5.4,0,0,1,1.88-4.32,5.06,5.06,0,0,1,3.42-1.29,4.9,4.9,0,0,1,2.11.47,4.09,4.09,0,0,1,1.17.9v-1h3.75Zm-3.63-5.28A2.4,2.4,0,1,0,105,13.36a2.28,2.28,0,0,0,1.83.84,2.32,2.32,0,0,0,1.7-.69A2.29,2.29,0,0,0,109.24,11.81Z"/><path class="cls-1" d="M123.34,10a3.64,3.64,0,0,0-1.59-.38,2.26,2.26,0,0,0-2.38,1.52,4.16,4.16,0,0,0-.21,1.47v4.51h-3.74V6.53h3.74V8.26a4.08,4.08,0,0,1,1.27-1.33,4.22,4.22,0,0,1,2.18-.55c.2,0,.44,0,.73,0Z"/><path class="cls-1" d="M146.83,17.09h-4l-1.15-8.94-3.75,8.94h-1.6l-3.58-8.94-1.32,8.94h-4L130,1.56h4l3.14,8.28,3.32-8.28h4Z"/><path class="cls-1" d="M160.29,13.23a3.81,3.81,0,0,1-2.78,3.92,9,9,0,0,1-2.84.4q-3.28,0-4.72-1.62a3.89,3.89,0,0,1-.91-2.7V6.53h3.74v6a1.93,1.93,0,0,0,.48,1.45,1.91,1.91,0,0,0,1.41.51,1.87,1.87,0,0,0,1.4-.51,1.93,1.93,0,0,0,.48-1.45v-6h3.74Z"/><path class="cls-1" d="M166.58,17.09h-3.75V0h3.75Z"/><path class="cls-1" d="M175.42,9.59h-2.13v7.5h-3.74V9.59h-1.23V6.53h1.23V3.36h3.74V6.53h2.13Z"/><path class="cls-1" d="M180.76,2.47a2.08,2.08,0,0,1-2.11,2.11A2,2,0,0,1,177.17,4a2,2,0,0,1-.6-1.49A2.1,2.1,0,0,1,180.14,1,2,2,0,0,1,180.76,2.47Zm-.23,14.62h-3.75V6.53h3.75Z"/><path class="cls-1" d="M201,17.09h-3.75V11.88A4.23,4.23,0,0,0,197,10a1.37,1.37,0,0,0-1.26-.74,1.6,1.6,0,0,0-1.44.81,3.59,3.59,0,0,0-.35,1.8v5.21h-3.74V11.88a4.43,4.43,0,0,0-.23-1.78,1.51,1.51,0,0,0-1.4-.81,1.57,1.57,0,0,0-1.37.7,1.69,1.69,0,0,0-.26.69,7.35,7.35,0,0,0-.08,1.2v5.21h-3.74V6.53h3.74v1.3A5.24,5.24,0,0,1,188,6.9a4.55,4.55,0,0,1,2.21-.54,4.1,4.1,0,0,1,2.6.81,4.53,4.53,0,0,1,1,1.16,4,4,0,0,1,3.55-2,4,4,0,0,1,2.11.57,2.88,2.88,0,0,1,1.29,1.69,5.81,5.81,0,0,1,.19,1.62Z"/><path class="cls-1" d="M214.71,12.51h-7.84c0,1.58.76,2.37,2.29,2.37a2,2,0,0,0,1.79-1h3.61a4.84,4.84,0,0,1-1.27,2.22,5.79,5.79,0,0,1-4.09,1.41,6,6,0,0,1-4.89-2,5.44,5.44,0,0,1-1.23-3.6,5.61,5.61,0,0,1,1.54-4.11A5.73,5.73,0,0,1,209,6.24a5.26,5.26,0,0,1,4.93,2.5,6.33,6.33,0,0,1,.83,3.29Zm-3.49-2.13a2,2,0,0,0-2.12-1.79,2.14,2.14,0,0,0-1.54.57,2.16,2.16,0,0,0-.59,1.22Z"/><path class="cls-1" d="M228.74,17.09H225V15.92a4,4,0,0,1-1.08,1,4.33,4.33,0,0,1-2.17.53,5.15,5.15,0,0,1-3.5-1.35,5.42,5.42,0,0,1-1.83-4.27,5.39,5.39,0,0,1,1.87-4.32,5.1,5.1,0,0,1,3.43-1.29,4.79,4.79,0,0,1,2.11.48,4.09,4.09,0,0,1,1.17.9V0h3.74Zm-3.63-5.27a2.39,2.39,0,0,0-2.4-2.41,2.27,2.27,0,0,0-1.82.84,2.4,2.4,0,0,0,0,3.13,2.26,2.26,0,0,0,1.82.84,2.36,2.36,0,0,0,2.4-2.4Z"/><path class="cls-1" d="M235.25,2.47a2.07,2.07,0,0,1-2.1,2.11A2,2,0,0,1,231.67,4a2.05,2.05,0,0,1-.61-1.49A2.11,2.11,0,0,1,234.64,1,2,2,0,0,1,235.25,2.47ZM235,17.09h-3.75V6.53H235Z"/><path class="cls-1" d="M249.48,17.09h-3.75V15.92a3.72,3.72,0,0,1-1.08,1,4.31,4.31,0,0,1-2.17.53,5.15,5.15,0,0,1-3.5-1.35,5.42,5.42,0,0,1-1.83-4.27A5.4,5.4,0,0,1,239,7.49a5.06,5.06,0,0,1,3.42-1.29,4.9,4.9,0,0,1,2.11.47,4.09,4.09,0,0,1,1.17.9v-1h3.75Zm-3.63-5.28a2.4,2.4,0,0,0-4.23-1.55,2.39,2.39,0,0,0,0,3.1,2.28,2.28,0,0,0,1.83.84,2.32,2.32,0,0,0,1.7-.69A2.29,2.29,0,0,0,245.85,11.81Z"/></g></g></svg>