<svg xmlns="http://www.w3.org/2000/svg" viewBox="0 0 18.99 21.42"><defs><style>.cls-1{fill:#fff;fill-rule:evenodd;}</style></defs><g id="Camada_2" data-name="Camada 2"><g id="Home"><path class="cls-1" d="M14.32,13.72c2.8,2.15,4.67,2.67,4.67,7.21,0,.16,0,.33,0,.49H0c0-.16,0-.33,0-.49,0-4.54,1.87-5.06,4.67-7.21A6,6,0,0,0,9.5,16.36a6,6,0,0,0,4.82-2.64ZM9.5,0C5.37,0,1.73,5.52,4.85,9.56,5.44,12.14,7.3,14,9.5,14s4.17-2,4.7-4.7C17.4,5.57,13.43,0,9.5,0Zm4.05,6.43H5.45a6.67,6.67,0,0,0-.14,1.36c0,3,1.88,5.38,4.19,5.38s4.18-2.41,4.18-5.38A7.47,7.47,0,0,0,13.55,6.43Z"/></g></g></svg>