<svg xmlns="http://www.w3.org/2000/svg" viewBox="0 0 104.86 96.11"><defs><style>.cls-1{fill:#fff;}.cls-1,.cls-2{stroke:#000;stroke-miterlimit:10;stroke-width:2px;}.cls-2{fill:none;}</style></defs><g id="Camada_2" data-name="Camada 2"><g id="Home"><path class="cls-1" d="M57.09,1A46.76,46.76,0,0,0,10.33,47.77c0,7.09,3.58,18.95,3.58,18.95L1.78,94.53,30.24,86A46.76,46.76,0,1,0,57.09,1Z"/><path class="cls-2" d="M41.39,22.24a6.56,6.56,0,0,0-2.83-1.59c-6.54-.58-9.77,9.62-9.36,14.71.47,5.82,3.56,11.11,7.14,15.72A71.17,71.17,0,0,0,61.73,71.52c3.42,1.63,7.1,3,10.89,2.87a14.5,14.5,0,0,0,13.2-11,3.68,3.68,0,0,0-.12-2.54,4.07,4.07,0,0,0-1.48-1.34L73.85,52.81A4.1,4.1,0,0,0,71.91,52c-2.55-.11-2.76,3.69-4.09,5.87s-4.3,2.82-6.75,2.16-4.48-2.33-6.38-4A55.3,55.3,0,0,1,43.86,43.89a3.12,3.12,0,0,1-.61-1.76,3.27,3.27,0,0,1,.82-1.69L49,33.93C50.51,31.91,45.21,25.31,41.39,22.24Z"/></g></g></svg>